<svg version="1.0"
        xmlns="http://www.w3.org/2000/svg" width="124.000000pt" height="122.000000pt" viewBox="0 0 124.000000 122.000000" preserveAspectRatio="xMidYMid meet">


        <g transform="translate(0.000000,122.000000) scale(0.100000,-0.100000)" fill="currentColor" stroke="currentColor">
                <path d="M557 1015 c-10 -21 -31 -42 -52 -52 -19 -9 -35 -20 -35 -25 0 -4 17
-16 38 -27 23 -12 44 -33 55 -55 9 -20 20 -36 25 -36 5 0 16 16 25 35 10 21
31 42 52 52 44 21 44 39 1 59 -19 10 -40 31 -50 50 -20 43 -38 43 -59 -1z m66
-93 c-12 -7 -23 -19 -23 -27 0 -21 -4 -19 -39 15 -28 28 -28 31 -11 40 10 6
21 19 25 30 6 18 9 17 39 -13 l33 -32 -24 -13z"/>
                <path d="M360 916 c-8 -22 -24 -39 -41 -47 -52 -21 -55 -36 -12 -57 24 -13 45
-34 56 -56 21 -45 33 -45 51 -1 10 23 27 41 50 52 45 21 46 39 2 59 -19 10
-40 31 -50 50 -20 43 -39 43 -56 0z m70 -90 c-10 -4 -23 -20 -30 -35 l-13 -26
-9 27 c-5 15 -18 30 -29 33 -19 6 -19 8 5 30 15 13 26 29 26 35 0 6 15 -4 34
-22 29 -29 31 -34 16 -42z"/>
                <path d="M736 812 c-3 -5 -28 -12 -56 -14 -34 -4 -59 -13 -75 -28 -14 -13 -25
-18 -25 -12 0 6 -14 19 -31 28 -25 12 -33 13 -39 3 -5 -8 3 -20 23 -33 l32
-22 3 -183 2 -184 -24 17 c-31 20 -70 20 -156 1 -110 -24 -100 -41 -100 170 0
113 4 185 10 185 5 0 7 7 4 15 -4 8 -15 15 -25 15 -18 0 -19 -11 -19 -215 l0
-215 23 0 c12 0 68 7 124 17 96 16 103 16 121 0 24 -22 82 -22 120 0 28 16 35
16 119 0 50 -9 104 -17 121 -17 l32 0 0 215 0 215 -34 0 c-28 0 -35 4 -38 23
-3 19 -10 22 -55 25 -28 2 -54 -1 -57 -6z m84 -95 l0 -73 -35 0 -35 0 0 73 0
73 35 0 35 0 0 -73z m-100 -42 c0 -52 3 -95 8 -95 4 0 18 9 32 20 24 18 25 18
57 -1 l33 -21 0 81 c0 74 2 81 20 81 19 0 20 -7 20 -185 0 -212 11 -194 -105
-170 -88 19 -126 19 -151 0 -10 -8 -22 -15 -26 -15 -5 0 -8 74 -8 165 0 209 9
232 88 234 l32 1 0 -95z"/>
                <path d="M190 470 l0 -219 53 5 c28 3 91 12 139 19 81 12 90 12 125 -6 50 -26
132 -26 165 0 24 19 29 19 119 6 52 -7 117 -15 144 -17 l50 -3 0 214 c0 163
-3 215 -12 219 -10 3 -13 -41 -13 -197 l0 -201 -28 0 c-16 0 -77 7 -137 15
-99 14 -109 14 -126 -1 -28 -25 -128 -26 -156 -1 -21 18 -23 18 -155 0 l-133
-19 -3 203 c-2 171 -5 203 -17 203 -13 0 -15 -32 -15 -220z"/>
                <path d="M430 604 c-8 -14 -27 -32 -42 -40 -36 -19 -36 -38 1 -54 16 -6 35
-25 41 -41 16 -37 34 -37 50 0 6 16 25 35 41 41 36 16 37 31 1 52 -15 9 -34
28 -42 42 -17 33 -33 33 -50 0z m46 -88 l-21 -21 -20 20 c-20 20 -20 20 -2 41
19 20 20 20 41 1 l22 -20 -20 -21z"/>
        </g>
</svg>
