<?xml version="1.0" standalone="no"?>
<!DOCTYPE svg PUBLIC "-//W3C//DTD SVG 20010904//EN"
 "http://www.w3.org/TR/2001/REC-SVG-20010904/DTD/svg10.dtd">
<svg version="1.0" xmlns="http://www.w3.org/2000/svg"
 width="159.000000pt" height="173.000000pt" viewBox="0 0 159.000000 173.000000"
 preserveAspectRatio="xMidYMid meet">

<g transform="translate(0.000000,173.000000) scale(0.100000,-0.100000)"
fill="#000000" stroke="none">
<path d="M548 1382 c-10 -2 -18 -12 -18 -23 0 -12 -7 -19 -20 -19 -13 0 -20
-7 -20 -20 0 -13 7 -20 20 -20 13 0 20 -7 20 -20 0 -13 7 -20 20 -20 13 0 20
7 20 20 0 14 -7 20 -21 20 -15 0 -20 5 -17 23 2 12 10 22 18 22 8 0 19 -10 25
-22 12 -28 31 -30 38 -3 4 16 0 20 -18 20 -17 0 -25 6 -27 23 -2 15 -9 21 -20
19z"/>
<path d="M676 1211 c-17 -19 -30 -21 -141 -21 -110 0 -125 -2 -150 -22 -40
-31 -65 -93 -65 -161 0 -68 19 -120 62 -164 l32 -33 152 0 c140 0 153 -2 159
-19 3 -10 14 -26 25 -36 18 -17 20 -31 20 -177 l0 -160 43 33 c23 18 47 36 52
40 6 4 34 -10 63 -32 l52 -40 0 159 c0 146 2 160 20 177 11 10 22 26 25 36 6
17 17 19 90 19 79 0 85 2 102 26 10 14 39 46 64 72 70 70 84 144 43 224 -26
51 -56 58 -250 58 -155 0 -180 2 -197 18 -14 12 -41 18 -101 20 -72 3 -83 2
-100 -17z m180 -36 c27 -18 62 -73 70 -111 l5 -29 -64 0 -64 0 -11 40 c-6 22
-22 57 -36 78 -14 21 -26 40 -26 43 0 11 104 -7 126 -21z m-355 -44 c21 -17
24 -28 24 -89 0 -55 -4 -74 -19 -91 -26 -29 -41 -26 -56 9 -14 34 -6 80 14 80
8 0 16 9 19 21 5 18 1 20 -26 17 -27 -3 -34 -9 -45 -42 -9 -28 -9 -48 -2 -77
17 -61 37 -69 177 -69 116 0 122 -1 120 -20 -1 -19 -8 -20 -137 -20 -151 0
-166 5 -194 64 -18 39 -21 137 -5 169 34 66 85 85 130 48z m229 -13 c11 -18
25 -50 31 -71 9 -34 7 -41 -15 -68 -15 -17 -26 -35 -26 -40 0 -5 -39 -9 -86
-9 -85 0 -86 0 -79 23 17 53 17 134 1 165 l-17 32 86 0 85 0 20 -32z m547 8
c23 -20 28 -32 28 -73 0 -33 -7 -60 -23 -85 l-24 -38 -114 0 c-63 0 -114 4
-114 9 0 4 -13 25 -30 46 -16 21 -30 47 -30 59 0 11 -9 40 -20 64 l-19 42 159
0 c154 0 160 -1 187 -24z m-316 -162 c44 -42 55 -86 34 -139 -20 -53 -66 -85
-120 -85 -84 0 -151 87 -126 163 11 33 52 79 81 90 34 14 101 -1 131 -29z
m234 -94 c-15 -16 -31 -20 -87 -20 -61 0 -68 2 -68 20 0 18 7 20 87 20 85 0
86 0 68 -20z m-255 -268 l0 -103 -32 25 -32 25 -33 -25 -33 -25 0 103 0 103
65 0 65 0 0 -103z"/>
<path d="M1110 720 c0 -13 7 -20 20 -20 13 0 20 7 20 20 0 13 -7 20 -20 20
-13 0 -20 -7 -20 -20z"/>
<path d="M557 713 c-4 -3 -7 -17 -7 -30 0 -16 6 -23 20 -23 16 0 20 7 20 30 0
28 -17 40 -33 23z"/>
<path d="M1070 675 c0 -8 9 -15 20 -15 11 0 20 7 20 15 0 8 -9 15 -20 15 -11
0 -20 -7 -20 -15z"/>
<path d="M1160 675 c0 -8 9 -15 20 -15 11 0 20 7 20 15 0 8 -9 15 -20 15 -11
0 -20 -7 -20 -15z"/>
<path d="M1112 633 c5 -26 38 -29 38 -4 0 15 -6 21 -21 21 -14 0 -19 -5 -17
-17z"/>
<path d="M470 610 c0 -16 7 -20 30 -20 23 0 30 4 30 20 0 16 -7 20 -30 20 -23
0 -30 -4 -30 -20z"/>
<path d="M620 610 c0 -16 7 -20 30 -20 23 0 30 4 30 20 0 16 -7 20 -30 20 -23
0 -30 -4 -30 -20z"/>
<path d="M553 554 c-8 -22 2 -49 20 -52 13 -3 17 4 17 31 0 24 -4 34 -16 34
-9 0 -18 -6 -21 -13z"/>
</g>
</svg>
