<svg version="1.0"
    xmlns="http://www.w3.org/2000/svg" width="512.000000pt" height="512.000000pt" viewBox="0 0 512.000000 512.000000" preserveAspectRatio="xMidYMid meet">


    <g transform="translate(0.000000,512.000000) scale(0.100000,-0.100000)" fill="currentColor" stroke="currentColor">
        <path d="M4282 5011 c-63 -22 -98 -52 -123 -106 -16 -34 -19 -66 -19 -201 l0
-162 -287 -8 c-359 -11 -2808 -12 -2819 -1 -4 4 -9 63 -11 130 -5 166 -8 182
-50 228 -88 97 -195 107 -477 44 -258 -58 -396 -173 -440 -367 -44 -190 -69
-1425 -46 -2233 16 -556 58 -1359 90 -1703 12 -132 42 -202 114 -271 86 -81
191 -124 405 -165 480 -94 946 -122 1836 -112 1249 14 2086 50 2284 96 167 40
294 135 342 258 l23 57 9 1885 c7 1335 6 1926 -2 2025 -16 215 -56 332 -145
432 -88 98 -202 148 -399 177 -139 21 -219 20 -285 -3z m273 -96 c248 -37 360
-116 419 -295 47 -143 48 -184 40 -2047 -4 -959 -9 -1743 -12 -1743 -3 0 -20
16 -39 35 -114 118 -294 175 -548 175 l-123 0 -6 123 c-3 67 -10 543 -16 1057
-6 514 -15 1317 -21 1783 -11 838 -11 849 8 875 39 53 123 63 298 37z m-3696
-58 c13 -7 33 -24 43 -38 19 -25 20 -85 44 -1705 13 -923 24 -1754 24 -1846
l0 -168 -152 0 c-285 -1 -451 -54 -583 -187 l-52 -52 -7 87 c-12 160 -45 783
-58 1082 -17 395 -17 1661 0 2030 23 502 33 560 118 644 78 78 203 126 419
160 93 15 163 13 204 -7z m3285 -569 c3 -84 8 -358 11 -610 5 -500 9 -468 -53
-468 -48 -1 -165 -49 -235 -96 -120 -83 -187 -176 -236 -330 -50 -158 -65
-174 -205 -208 -93 -23 -136 -47 -185 -102 -45 -51 -81 -147 -81 -215 0 -53
34 -152 71 -205 46 -67 106 -112 229 -171 121 -58 153 -80 176 -125 28 -54 12
-108 -68 -230 -34 -51 -71 -115 -84 -143 -62 -136 -49 -323 33 -465 105 -182
313 -310 554 -341 250 -32 481 86 558 286 17 45 22 50 48 47 48 -5 170 -70
217 -117 95 -96 133 -243 87 -339 -42 -85 -126 -143 -258 -176 -148 -38 -1185
-89 -1815 -90 l-157 0 -6 48 c-18 131 -62 230 -141 312 -143 150 -313 177
-672 106 -259 -51 -360 -48 -440 11 -57 43 -63 65 -60 241 2 145 0 162 -21
217 -35 88 -127 178 -206 200 -32 10 -74 15 -95 12 l-38 -5 -6 347 c-20 1151
-20 1145 0 1136 272 -114 552 -108 674 15 73 72 84 143 55 338 -22 143 -6 195
70 232 43 21 53 22 228 15 171 -7 185 -6 239 14 69 27 132 90 149 153 8 29 10
89 6 184 -9 214 7 250 127 285 106 30 144 49 190 94 59 56 90 125 94 208 l4
67 77 1 c258 5 898 15 1017 17 l142 2 6 -152z m-2207 132 l183 0 0 -67 c0 -87
-14 -135 -51 -177 -40 -47 -88 -63 -247 -86 -161 -23 -211 -39 -272 -84 -63
-46 -102 -124 -134 -269 -35 -158 -49 -189 -112 -246 -62 -57 -123 -81 -204
-81 l-57 0 -6 332 c-4 182 -7 412 -7 511 l0 180 362 -6 c199 -4 444 -7 545 -7z
m863 -48 c0 -64 -39 -142 -88 -175 -20 -14 -66 -33 -102 -43 -118 -31 -171
-70 -207 -149 -15 -34 -18 -64 -15 -215 2 -159 1 -178 -17 -207 -41 -65 -52
-68 -291 -68 l-215 0 -55 -31 c-110 -62 -140 -145 -115 -321 28 -199 16 -252
-64 -293 -52 -26 -177 -43 -255 -35 -87 9 -197 40 -266 75 l-60 30 0 49 c0 26
-3 109 -6 183 l-7 135 86 5 c70 4 97 10 150 37 80 39 147 102 182 171 15 29
40 111 56 183 51 224 82 252 319 287 152 22 179 29 235 58 98 50 147 139 153
280 l4 92 289 0 289 0 0 -48z m1360 -1415 l0 -162 -62 -12 c-155 -30 -294
-145 -344 -285 -96 -273 74 -567 355 -611 l68 -11 5 -453 c4 -345 8 -456 18
-468 10 -12 42 -15 182 -15 l169 0 -6 -22 c-13 -43 -78 -128 -124 -162 -79
-57 -152 -79 -266 -79 -265 -1 -500 147 -584 366 -18 47 -24 82 -24 147 0 103
17 152 92 264 82 121 106 179 105 256 -1 75 -15 109 -71 162 -35 34 -74 56
-213 121 -76 36 -130 84 -165 148 -55 100 -34 231 47 293 18 13 76 36 128 51
163 45 195 79 255 261 39 124 85 197 159 258 56 46 160 95 223 106 26 4 49 8
51 9 1 0 2 -72 2 -162z m12 -623 l3 -356 -45 6 c-116 16 -239 113 -280 224
-31 81 -25 215 12 287 26 50 89 117 139 147 36 22 109 47 141 48 l28 0 2 -356z
m-2977 -1113 c46 -20 100 -78 123 -130 13 -29 16 -66 14 -189 -2 -98 2 -167 9
-193 17 -57 80 -123 147 -156 54 -26 64 -28 187 -28 107 1 158 7 290 34 265
55 424 44 525 -37 80 -65 137 -170 155 -288 l6 -41 -68 -6 c-202 -19 -1199 1
-1214 24 -3 6 -9 33 -12 60 -9 75 -61 170 -126 232 -88 84 -152 111 -326 137
-104 15 -142 28 -180 61 -54 48 -77 150 -58 262 l6 38 183 -2 c138 -2 186 1
198 10 13 11 16 35 16 116 0 73 4 105 13 108 26 11 74 6 112 -12z m-629 -344
c1 -123 23 -185 88 -245 54 -50 123 -75 261 -96 68 -10 130 -26 161 -41 89
-43 165 -143 183 -240 6 -34 5 -45 -4 -45 -73 0 -446 50 -605 81 -200 39 -292
74 -359 135 -50 44 -68 77 -80 142 -31 159 90 324 285 391 32 11 61 20 64 21
3 0 5 -46 6 -103z"/>
        <path d="M3581 4021 c-21 -21 -172 -248 -212 -318 -13 -24 -26 -43 -29 -43 -3
1 -66 57 -140 125 -79 73 -143 125 -156 125 -28 0 -44 -19 -44 -51 0 -23 26
-51 145 -160 l144 -132 -40 -71 c-22 -39 -74 -140 -116 -223 -74 -150 -75
-153 -59 -179 13 -18 24 -24 44 -22 22 2 33 15 62 73 39 80 180 348 185 353 1
2 66 -47 144 -108 166 -129 193 -145 220 -130 23 12 35 44 24 64 -4 8 -57 51
-118 96 -60 46 -134 103 -163 128 l-52 45 26 46 c15 25 68 109 119 186 51 77
95 146 99 153 11 18 -21 62 -44 62 -11 0 -29 -9 -39 -19z"/>
        <path d="M2793 3345 c-74 -35 -93 -58 -74 -93 19 -35 48 -32 134 11 85 43 104
69 77 103 -19 22 -58 16 -137 -21z"/>
        <path d="M2481 3160 c-45 -49 -81 -95 -81 -101 0 -27 22 -49 50 -49 23 0 43
16 109 88 44 48 81 93 81 100 0 30 -21 52 -50 52 -24 0 -43 -16 -109 -90z"/>
        <path d="M2395 2886 c-46 -46 -45 -182 1 -213 21 -14 27 -14 47 0 19 13 22 23
22 83 0 38 4 79 8 91 6 16 3 27 -12 42 -27 27 -37 26 -66 -3z"/>
        <path d="M1655 2601 c-181 -52 -334 -209 -386 -396 -19 -69 -17 -241 5 -342
48 -229 200 -583 338 -790 85 -126 193 -243 226 -243 32 0 62 34 174 205 158
240 295 535 355 765 32 123 36 294 9 385 -62 210 -221 367 -421 420 -78 20
-223 18 -300 -4z m298 -101 c176 -54 308 -211 338 -399 35 -229 -108 -622
-374 -1030 l-81 -124 -39 44 c-186 213 -406 705 -439 986 -30 245 95 455 311
524 78 25 201 25 284 -1z"/>
        <path d="M1712 2304 c-178 -88 -219 -336 -79 -476 58 -58 120 -83 207 -83 128
1 221 60 273 174 31 66 30 180 -1 238 -35 67 -78 110 -144 143 -83 41 -179 43
-256 4z m216 -95 c51 -25 99 -85 108 -137 14 -73 -33 -175 -95 -207 -100 -51
-237 -6 -277 92 -29 68 -11 167 39 222 50 54 148 67 225 30z"/>
        <path d="M2512 2498 c-29 -29 -14 -67 53 -133 66 -67 104 -82 133 -53 24 24
11 51 -62 124 -73 73 -100 86 -124 62z"/>
        <path d="M2785 2150 c-29 -32 -13 -62 62 -112 107 -70 111 -72 139 -53 47 30
33 58 -63 124 -49 33 -95 61 -104 61 -9 0 -24 -9 -34 -20z"/>
        <path d="M3010 1830 c-16 -16 -20 -33 -20 -86 0 -80 11 -104 48 -104 44 0 52
16 52 101 0 69 -3 80 -22 93 -29 20 -34 20 -58 -4z"/>
        <path d="M2963 1522 c-6 -4 -19 -27 -29 -52 -9 -25 -32 -70 -51 -101 -35 -58
-36 -81 -1 -100 29 -16 54 -2 87 49 61 96 84 175 59 200 -13 13 -47 16 -65 4z"/>
        <path d="M2660 1134 c-19 -13 -52 -30 -73 -36 -63 -19 -82 -74 -35 -99 40 -21
198 53 213 101 3 10 1 28 -5 40 -15 27 -56 25 -100 -6z"/>
        <path d="M2328 990 c-29 -18 -133 -23 -186 -10 -67 16 -95 2 -90 -43 5 -48 41
-62 163 -61 108 1 169 17 191 50 29 43 -31 92 -78 64z"/>
    </g>
</svg>
