<svg version="1.0"
    xmlns="http://www.w3.org/2000/svg" width="116.000000pt" height="119.000000pt" viewBox="0 0 116.000000 119.000000" preserveAspectRatio="xMidYMid meet">

    <g transform="translate(0.000000,119.000000) scale(0.100000,-0.100000)" fill="currentColor" stroke="currentColor">
        <path d="M423 951 c-39 -25 -53 -49 -53 -96 0 -39 22 -46 28 -9 13 90 25 94
252 94 l181 0 -16 -30 c-20 -38 -19 -82 5 -274 11 -88 20 -193 20 -234 0 -68
-2 -76 -29 -103 -50 -50 -131 -28 -131 34 0 31 33 61 58 53 29 -10 35 -34 12
-53 -25 -22 -25 -33 0 -33 30 0 53 41 41 73 -16 42 -39 47 -205 47 l-156 0 0
63 c0 61 -12 98 -26 84 -4 -4 -6 -38 -5 -77 l2 -70 -64 0 c-87 0 -117 -22
-117 -86 0 -36 5 -50 27 -70 l27 -25 263 3 263 3 32 33 c31 31 33 37 36 115 2
45 -6 156 -17 247 -31 245 -28 268 36 290 58 21 103 -18 89 -76 -8 -31 -51
-43 -74 -20 -16 16 -15 19 6 36 22 18 23 40 1 40 -16 0 -49 -39 -49 -58 0 -29
37 -62 71 -62 70 0 104 90 55 147 l-24 28 -254 3 c-237 2 -255 1 -285 -17z
m230 -600 c-3 -21 0 -48 6 -60 l12 -21 -192 0 c-165 0 -195 2 -211 17 -24 21
-24 78 0 92 10 6 96 11 204 11 l186 0 -5 -39z"/>
        <path d="M522 855 c-7 -14 -25 -34 -42 -43 -38 -21 -38 -36 -1 -52 16 -6 35
-25 41 -41 16 -37 35 -37 55 1 8 16 29 37 46 45 24 13 28 19 19 30 -7 8 -20
17 -31 20 -11 4 -26 20 -34 36 -19 36 -38 37 -53 4z m45 -89 l-20 -22 -21 20
-21 21 20 20 c20 20 20 20 41 2 20 -19 20 -20 1 -41z"/>
        <path d="M315 759 c-13 -28 -31 -47 -57 -60 -21 -11 -38 -24 -38 -29 0 -5 17
-18 38 -29 26 -13 44 -32 57 -60 23 -51 42 -52 63 -2 12 29 28 45 59 60 24 11
43 25 43 30 0 5 -19 20 -42 33 -28 15 -49 37 -61 61 -22 48 -40 47 -62 -4z
m50 -38 c8 -16 24 -32 35 -36 26 -8 26 -22 0 -30 -11 -4 -28 -21 -37 -38 l-16
-32 -15 33 c-9 18 -26 35 -39 38 -30 8 -29 20 1 28 14 3 29 18 36 36 7 16 14
30 16 30 2 0 10 -13 19 -29z"/>
        <path d="M590 658 c-11 -18 -20 -36 -20 -39 0 -3 -16 -13 -35 -22 -44 -21 -44
-33 -1 -53 19 -10 40 -31 50 -50 20 -42 40 -43 56 -3 8 18 28 38 51 50 22 11
39 24 39 29 0 5 -17 18 -39 29 -23 12 -43 32 -51 51 -18 44 -27 45 -50 8z m61
-73 c25 -8 24 -22 0 -30 -11 -3 -23 -15 -26 -26 -6 -18 -8 -17 -35 11 l-28 30
27 29 c24 27 27 28 35 10 5 -10 17 -21 27 -24z"/>
    </g>
</svg>
