<?xml version="1.0" standalone="no"?>
<!DOCTYPE svg PUBLIC "-//W3C//DTD SVG 20010904//EN"
 "http://www.w3.org/TR/2001/REC-SVG-20010904/DTD/svg10.dtd">
<svg version="1.0" xmlns="http://www.w3.org/2000/svg"
 width="512.000000pt" height="512.000000pt" viewBox="0 0 512.000000 512.000000"
 preserveAspectRatio="xMidYMid meet">

<g transform="translate(0.000000,512.000000) scale(0.100000,-0.100000)"
fill="#ffffff" stroke="none">
<path d="M2808 4930 c-18 -11 -33 -52 -42 -118 -17 -116 -92 -183 -223 -199
-71 -8 -97 -29 -97 -78 0 -50 27 -70 101 -79 128 -15 201 -86 223 -217 14 -80
35 -109 79 -109 50 0 71 27 82 105 18 131 95 206 228 222 61 7 89 26 97 68 10
51 -18 74 -109 90 -144 25 -196 84 -222 248 -10 65 -66 96 -117 67z m85 -358
l37 -38 -40 -39 -40 -39 -40 39 -40 39 37 38 c20 21 40 38 43 38 3 0 23 -17
43 -38z"/>
<path d="M1583 4755 c-183 -40 -335 -197 -390 -405 -26 -96 -23 -327 6 -435
34 -131 84 -219 170 -305 98 -96 183 -144 425 -237 105 -41 224 -90 263 -110
127 -64 223 -167 259 -279 29 -91 36 -103 63 -112 39 -14 88 9 97 44 17 66
-56 230 -141 323 -102 110 -186 158 -458 262 -230 88 -323 137 -395 208 -109
107 -155 234 -156 436 -1 171 32 271 119 364 75 80 180 117 284 100 154 -24
251 -148 271 -348 11 -98 25 -121 80 -121 55 0 70 22 70 106 0 146 -57 290
-150 384 -67 67 -138 106 -227 125 -82 18 -109 18 -190 0z"/>
<path d="M3907 4268 c-22 -20 -27 -39 -41 -153 -18 -153 -43 -243 -86 -308
-38 -56 -80 -84 -151 -97 -68 -13 -89 -32 -89 -81 0 -47 21 -63 102 -78 68
-12 104 -29 140 -68 34 -36 48 -72 58 -153 7 -52 14 -69 36 -88 20 -17 34 -22
53 -17 42 11 58 33 70 96 13 78 36 123 79 158 35 30 98 51 151 51 57 0 101 37
101 84 0 21 -40 66 -58 66 -36 0 -93 22 -122 47 -70 59 -108 181 -117 383 -6
122 -8 136 -29 157 -29 29 -66 29 -97 1z m102 -613 c19 -20 18 -21 -30 -63
l-49 -44 -45 46 -45 47 39 49 c22 28 43 60 46 71 6 19 11 15 36 -32 17 -29 38
-63 48 -74z"/>
<path d="M715 4144 c-71 -37 -105 -95 -105 -182 0 -108 74 -184 184 -190 72
-3 120 19 170 81 28 35 31 45 31 111 0 62 -4 78 -28 114 -15 23 -45 51 -67 62
-48 25 -142 27 -185 4z m132 -162 c7 -31 -7 -56 -36 -60 -31 -5 -51 15 -51 50
0 51 74 60 87 10z"/>
<path d="M2355 4065 c-21 -20 -25 -34 -25 -80 l0 -55 -54 0 c-69 0 -106 -26
-106 -76 0 -53 28 -74 100 -74 l60 0 0 -59 c0 -73 21 -104 70 -104 51 0 80 39
80 109 l0 54 60 0 c68 0 100 21 100 66 0 55 -41 84 -121 84 l-39 0 0 55 c0 46
-4 60 -25 80 -13 14 -36 25 -50 25 -14 0 -37 -11 -50 -25z"/>
<path d="M2835 3832 c-207 -102 -254 -347 -95 -496 115 -108 230 -114 230 -13
0 38 -15 55 -77 86 -80 40 -117 118 -88 187 56 135 203 153 303 39 52 -58 65
-100 66 -200 0 -75 -4 -98 -24 -140 -34 -70 -106 -138 -244 -230 -237 -158
-321 -268 -328 -430 -2 -52 0 -60 26 -82 22 -18 35 -23 55 -18 42 11 59 33 66
88 16 123 70 188 261 317 180 122 245 183 290 275 142 287 -22 631 -306 643
-66 3 -82 0 -135 -26z"/>
<path d="M1374 3235 c-57 -24 -59 -76 -5 -136 l39 -44 -39 -42 c-45 -50 -52
-98 -19 -128 33 -30 76 -23 118 18 21 21 42 37 46 37 5 0 28 -18 52 -40 48
-44 79 -50 115 -21 38 30 32 82 -16 131 l-38 39 41 45 c49 53 55 91 19 124
-36 34 -71 28 -123 -20 l-46 -42 -31 37 c-41 47 -73 59 -113 42z"/>
<path d="M645 3045 c-14 -13 -25 -34 -25 -47 0 -13 50 -241 110 -508 61 -267
110 -486 110 -487 0 -7 -321 -104 -405 -123 -55 -12 -108 -30 -118 -40 -12
-11 -24 -47 -33 -101 -15 -86 -24 -123 -51 -195 -14 -40 -16 -41 -81 -54 -74
-14 -112 -43 -112 -84 0 -15 37 -84 86 -163 160 -254 384 -679 490 -926 16
-38 37 -77 47 -88 24 -25 66 -24 135 5 260 109 615 170 1058 183 l221 6 9 -44
c8 -37 15 -47 50 -66 120 -67 277 -77 415 -27 90 32 108 46 115 96 l7 38 141
0 c392 0 763 -57 1088 -166 178 -60 178 -61 231 59 139 308 330 670 489 923
97 156 106 188 64 222 -14 10 -52 25 -86 32 -49 10 -64 18 -75 40 -19 36 -51
163 -60 233 -10 76 -27 89 -165 122 -63 15 -177 47 -253 72 -112 37 -137 48
-133 62 25 82 216 961 214 984 -6 61 -85 86 -122 39 -8 -9 -43 -53 -78 -97
-114 -143 -272 -257 -430 -309 -76 -26 -116 -31 -433 -61 -201 -19 -305 -44
-422 -101 -103 -49 -190 -125 -237 -206 l-28 -48 -40 60 c-105 158 -276 247
-548 285 -58 8 -174 19 -257 25 -84 6 -186 19 -228 30 -190 49 -406 204 -523
377 -53 78 -94 92 -137 48z m376 -468 c142 -84 275 -119 514 -137 368 -27 509
-66 621 -172 88 -83 144 -234 144 -388 0 -74 28 -113 80 -113 50 0 66 27 74
125 21 244 97 377 262 455 97 46 215 68 489 92 330 29 451 70 651 222 43 32
64 43 60 32 -2 -10 -35 -153 -72 -318 -37 -165 -68 -302 -70 -304 -2 -2 -43
11 -91 29 -115 41 -192 58 -311 70 -295 28 -628 -81 -834 -274 -40 -36 -48
-50 -48 -80 0 -23 7 -42 22 -56 37 -34 68 -26 143 39 170 147 380 223 620 223
157 0 244 -19 430 -94 179 -72 395 -146 522 -179 l91 -23 20 -86 c11 -47 19
-86 17 -88 -2 -2 -65 8 -142 22 -483 87 -905 107 -1312 60 -44 -5 -45 -5 -26
11 39 34 162 84 245 101 71 14 118 16 291 11 227 -7 229 -7 244 55 6 22 1 33
-22 57 -27 27 -37 29 -128 36 -154 12 -377 0 -470 -24 -127 -33 -238 -93 -314
-170 -67 -67 -127 -165 -152 -249 -7 -24 -22 -48 -33 -55 -24 -13 -242 -16
-297 -4 -31 6 -38 13 -48 50 -46 152 -169 299 -311 369 -119 59 -218 79 -415
85 -209 6 -322 -6 -347 -37 -24 -30 -23 -73 3 -96 20 -18 39 -19 268 -19 241
0 248 -1 326 -27 44 -15 105 -44 135 -63 l55 -36 -46 5 c-425 49 -927 21
-1426 -80 -18 -4 -33 -3 -32 2 0 5 8 45 18 88 l17 79 90 24 c134 35 324 100
459 155 255 106 335 123 539 115 102 -3 162 -11 216 -26 118 -34 265 -111 354
-185 87 -73 113 -80 151 -41 42 41 34 72 -39 140 -121 114 -309 206 -501 246
-196 41 -459 18 -642 -55 -46 -18 -83 -31 -83 -29 0 2 -31 143 -70 314 -38
172 -70 315 -70 320 0 5 27 -12 59 -39 32 -26 87 -64 122 -85z m609 -1077 c74
-5 193 -17 263 -26 144 -20 149 -23 163 -114 11 -70 35 -88 144 -105 52 -8
131 -15 175 -15 109 0 265 26 287 48 10 10 25 44 33 76 25 94 19 90 157 109
455 62 905 39 1458 -75 107 -22 197 -41 199 -44 2 -2 -37 -72 -87 -156 -129
-219 -222 -395 -328 -618 -51 -107 -96 -195 -101 -195 -4 0 -57 17 -118 37
-269 89 -573 134 -983 145 l-222 6 5 86 c2 47 7 186 10 309 l6 222 -25 25
c-31 31 -67 32 -100 3 l-26 -23 -11 -380 c-8 -266 -14 -382 -22 -387 -7 -4
-36 -13 -66 -19 -60 -12 -122 -7 -175 15 l-33 14 -7 313 c-8 399 -12 444 -39
470 -21 19 -52 24 -82 13 -29 -11 -46 -59 -40 -116 2 -29 7 -164 10 -300 l6
-248 -123 0 c-252 0 -573 -31 -798 -75 -100 -20 -315 -81 -394 -111 -10 -4
-23 13 -42 58 -95 214 -269 545 -407 776 -44 73 -78 135 -76 137 2 2 92 21
199 43 450 93 837 126 1190 102z"/>
<path d="M4402 2679 c-70 -21 -132 -114 -132 -195 1 -74 74 -164 151 -184 107
-29 224 47 245 159 8 42 -9 113 -37 152 -44 62 -147 93 -227 68z m102 -155 c9
-8 16 -23 16 -31 0 -21 -29 -53 -48 -53 -22 0 -52 30 -52 51 0 23 26 49 50 49
10 0 26 -7 34 -16z"/>
</g>
</svg>
